<?xml version="1.0"?><svg xmlns="http://www.w3.org/2000/svg"  viewBox="0 0 50 50" width="150px" height="150px">    <path d="M 2.0996094 6.9609375 L 2.0996094 42.939453 L 27.550781 42.939453 L 29.679688 42.939453 L 48 42.939453 L 48 6.9609375 L 29.039062 6.9609375 L 26.599609 6.9609375 L 2.0996094 6.9609375 z M 27.679688 8.9609375 L 46 8.9609375 L 46 40.939453 L 29.009766 40.939453 C 28.739766 39.989453 28.540391 39.020781 28.400391 38.050781 C 28.290391 37.280781 28.229453 36.530547 28.189453 35.810547 L 28.189453 35.800781 C 28.197008 35.799475 28.20345 35.796383 28.210938 35.794922 C 28.213204 35.858583 28.208154 35.916455 28.210938 35.980469 C 28.870937 35.940469 29.529453 35.890547 30.189453 35.810547 C 33.709453 35.400547 37.179688 34.469062 40.429688 33.039062 L 39.630859 31.210938 C 36.640859 32.520937 33.450937 33.389063 30.210938 33.789062 C 29.550938 33.869062 28.880938 33.940469 28.210938 33.980469 C 28.21 34.000469 28.211816 34.02291 28.210938 34.042969 C 28.207058 34.04213 28.203118 34.041812 28.199219 34.041016 C 28.199457 34.034135 28.198978 34.026406 28.199219 34.019531 C 28.199219 33.999531 28.200937 33.990469 28.210938 33.980469 C 28.200937 33.910469 28.210938 33.849063 28.210938 33.789062 C 28.300938 32.099063 28.580156 30.600313 28.910156 29.320312 C 28.960156 29.130312 29.010547 28.949297 29.060547 28.779297 C 29.070547 28.769297 29.070078 28.750469 29.080078 28.730469 C 29.210078 28.270469 29.36 27.839453 29.5 27.439453 L 29.990234 26.099609 L 29.966797 26.099609 L 21.25 26.099609 C 21.83 22.079609 22.980156 18.180469 24.660156 14.480469 C 25.530156 12.570469 26.529688 10.720937 27.679688 8.9609375 z M 11.910156 13.972656 L 13.947266 13.972656 C 13.948266 15.658656 13.950172 17.34425 13.951172 19.03125 C 13.267172 19.02625 12.582437 19.021625 11.898438 19.015625 C 11.901438 17.334625 11.906156 15.653656 11.910156 13.972656 z M 34.009766 14.009766 L 34.009766 18.980469 L 35.875 18.980469 L 35.875 14.009766 L 34.009766 14.009766 z M 10.365234 31.150391 C 14.376234 32.920391 18.626281 33.889297 22.988281 34.029297 C 24.051281 34.059297 25.115734 34.050469 26.177734 33.980469 C 26.147734 34.620469 26.147734 35.290469 26.177734 35.980469 C 25.465734 36.030469 24.74225 36.050781 24.03125 36.050781 C 23.66025 36.050781 23.300687 36.039297 22.929688 36.029297 C 18.307688 35.879297 13.804734 34.860469 9.5527344 32.980469 L 10.365234 31.150391 z"/></svg>